<?xml version="1.0" encoding="utf-8"?>
<!-- Svg Vector Icons : http://www.onlinewebfonts.com/icon -->
<!DOCTYPE svg PUBLIC "-//W3C//DTD SVG 1.1//EN" "http://www.w3.org/Graphics/SVG/1.1/DTD/svg11.dtd">
<svg version="1.1" xmlns="http://www.w3.org/2000/svg" xmlns:xlink="http://www.w3.org/1999/xlink" x="0px" y="0px" viewBox="0 0 1000 1000" enable-background="new 0 0 1000 1000" xml:space="preserve">
<metadata> Svg Vector Icons : http://www.onlinewebfonts.com/icon </metadata>
<g><path d="M500,10C229.4,10,10,229.4,10,500s219.4,490,490,490s490-219.4,490-490S770.6,10,500,10z M730.6,683.1c12.1,11.9,12.3,31.2,0.5,43.4l0,0c-11.9,12.1-31.2,12.3-43.4,0.5L500,542.9L312.2,726.8c-12.1,11.9-31.5,11.7-43.4-0.5l0,0c-11.9-12.1-11.7-31.5,0.5-43.4l186.9-183L269.4,316.9c-12.1-11.9-12.3-31.2-0.5-43.4l0,0c11.9-12.1,31.2-12.3,43.4-0.5l187.8,184l187.8-183.9c12.1-11.9,31.5-11.7,43.4,0.5l0,0c11.9,12.1,11.7,31.5-0.5,43.4L543.7,500L730.6,683.1z"/></g>
</svg>